**ABCDEFGHIJKLMNOPQRSTUVWXYZabcdefghijklmnopqrstuvwxyz**************************
**PARASOLID !"#$%&'()*+,-./:;<=>?@[\]^_`{|}~0123456789**************************
**PART1;
MC=AMD64;
MC_MODEL=Intel64 Family 6 Model 94 Stepping 3, GenuineIntel;
MC_ID=unknown;
OS=Windows_NT;
OS_RELEASE=unknown;
FRU=Parasolid Version 27.0, build 178,  8-16-2014;
APPL=SOLIDWORKS 2015-2014271;
SITE=;
USER=unknown;
FORMAT=text;
GUISE=transmit;
KEY=”“∂À∏«;
FILE=”“∂À∏«.x_t;
DATE=Mon Dec 05 20:31:07 2016;
**PART2;
SCH=SCH_2700178_26105;
USFLD_SIZE=0;
**PART3;
**END_OF_HEADER*****************************************************************
T51 : TRANSMIT FILE created by modeller version 270017823 SCH_2700178_26105_1300
6196 0 12 30 CCCCCCCCCCCCCDI5 owner1040 0 CCCCCCCCCA13 boundary_mesh1006 0 A16 i
ndex_map_offset0 0 1 dA9 index_map82 0 A17 node_id_index_map82 0 A20 schema_embe
dding_map82 0 A5 child12 0 A14 lowest_node_id0 0 1 dZ1 668 2 3 0 0 0 0 1e3 1e-8
 0 4 0 1 0 1 1 5 6 7 0 8 9 0 0 0 0 0 0 0 0 81 255 2 2 312 10 1 0 0 0 0 11 0 70 1
1 CI9 list_type0 0 1 uI10 notransmit0 0 1 lCCCDCCDI12 finger_index0 0 1 dI12 fin
ger_block1012 0 CZ3 0 4 T1 0 0 3 20 1 12 12 13 255 5 29 0 1 0 13 0 0 14 0 52 255
 6 378 0 15 16 0 0 -0 0 .01279809964586888 0 0 -1 .0155 .992546151641323 .121869
343405144 -1 0 0 31 255 7 527 0 17 18 0 0 +-.04 0 .001 0 0 1 1 0 0 .0045 19 8 CC
CCCCCA5 owner12 0 Z8 7 0 1 14 0 19 V0 16 255 9 358 0 ?20 0 21 22 0 0 1 17 255 20
 0 23 20 20 0 24 9 0 0 +16 21 330 0 ?25 9 26 27 0 0 1 31 22 361 0 9 27 28 0 +0 0
 .01279809964586888 0 0 -1 -1 0 0 .0155 31 27 333 0 21 29 22 0 -0 0 .00520190035
413113 0 0 -1 -1 0 0 .0155 31 28 389 0 30 22 31 0 +0 .04 .001 0 0 1 1 0 0 .0045
 16 30 401 0 ?32 33 34 28 0 0 1 31 31 435 0 35 28 18 0 +.04 0 .001 0 0 1 1 0 0 .
0045 16 35 447 0 ?36 34 37 31 0 0 1 31 18 481 0 38 31 7 0 +0 -.04 .001 0 0 1 1 0
 0 .0045 16 38 493 0 ?39 37 40 18 0 0 1 17 39 0 41 39 39 0 42 38 0 0 +16 37 451
 0 ?43 35 38 44 0 0 1 16 40 497 0 ?45 38 17 46 0 0 1 17 45 0 47 45 45 0 48 40 0
 0 +16 17 539 0 ?49 40 50 7 0 0 1 31 46 521 0 40 51 44 0 +0 -.04 .009 0 0 1 1 0
 0 .0045 31 51 567 0 50 0 46 0 +-.04 0 .009 0 0 1 1 0 0 .0045 31 44 475 0 37 46
 52 0 +.04 0 .009 0 0 1 1 0 0 .0045 31 52 429 0 34 44 53 0 +0 .04 .009 0 0 1 1 0
 0 .0045 16 34 405 0 ?54 30 35 52 0 0 1 31 53 302 0 33 52 55 0 +0 0 .018 0 0 -1
 -1 0 0 .0155 16 33 279 0 ?56 57 30 53 0 0 1 31 55 252 0 58 53 59 0 +0 0 .012 0
 0 -1 -1 0 0 .022 16 58 227 0 ?60 61 57 55 0 0 1 31 59 251 0 57 55 62 0 +0 0 .00
6 0 0 -1 -1 0 0 .022 16 57 223 0 ?63 58 33 59 0 0 1 31 62 209 0 61 59 64 0 +0 0
 0 0 0 -1 -1 0 0 .0155 16 61 190 0 ?65 66 58 62 0 0 1 31 64 168 0 67 62 68 0 +0
 0 .018 0 0 1 1 0 0 .025 16 67 145 0 ?69 70 66 64 0 0 1 31 68 167 0 66 64 71 0 +
0 0 .019 0 0 1 1 0 0 .025 16 66 148 0 ?72 67 61 68 0 0 1 31 71 126 0 73 68 74 0
 +0 0 .019 0 0 1 1 0 0 .031 16 73 106 0 ?75 76 70 71 0 0 1 31 74 125 0 70 71 77
 0 +0 0 .009 0 0 1 1 0 0 .031 16 70 103 0 ?78 73 67 74 0 0 1 31 77 83 0 79 74 80
 0 +0 0 .009 0 0 1 1 0 0 .049 16 79 58 0 ?81 82 76 77 0 0 1 31 80 82 0 76 77 83
 0 +0 0 .001 0 0 1 1 0 0 .049 16 76 55 0 ?84 79 73 80 0 0 1 31 83 5 0 26 80 29 0
 +0 0 .001 0 0 1 1 0 0 .03 16 26 4 0 ?85 21 82 83 0 0 1 31 29 23 0 82 83 27 0 +0
 0 0 0 0 1 1 0 0 .03 16 82 18 0 ?86 26 79 29 0 0 1 17 86 0 87 86 86 0 88 82 0 0
 +15 255 87 26 0 86 89 0 17 88 0 90 88 88 0 86 82 0 0 -15 90 17 0 88 91 0 14 255
 91 16 92 ?93 89 94 5 95 -0 0 93 89 19 81 1 92 651 96 91 97 0 0 98 99 14 93 61 9
8 ?100 91 101 5 102 -0 0 100 91 19 14 89 25 103 ?91 13 104 5 105 -0 0 91 13 19 1
5 94 181 0 106 91 90 50 255 95 22 0 91 107 105 0 +0 0 0 0 0 1 1 0 0 13 19 8 0 0
 0 0 0 0 8 13 14 13 100 108 ?89 0 109 5 110 +0 0 89 0 19 81 1 108 654 96 13 111
 0 103 112 113 15 109 533 0 114 13 115 50 110 80 0 13 116 102 0 +0 0 .009 0 0 1
 1 0 0 51 255 116 122 0 117 118 110 0 -0 0 .019 0 0 -1 .031 -1 0 0 50 102 79 0 9
3 110 107 0 +0 0 .001 0 0 1 1 0 0 51 107 78 0 100 102 95 0 -0 0 .009 0 0 -1 .049
 -1 0 0 14 100 65 112 ?117 93 119 5 107 -0 0 117 93 19 81 1 112 655 96 100 120 0
 108 121 122 14 117 109 121 ?123 100 124 5 116 -0 0 123 100 19 15 119 68 0 125 1
00 126 17 125 0 119 125 125 0 81 79 0 0 -15 126 69 0 84 100 0 17 84 0 126 84 84
 0 127 76 0 0 +17 127 0 128 127 127 0 84 76 0 0 -15 128 63 0 127 93 129 15 129 6
4 0 85 93 0 17 85 0 129 85 85 0 130 26 0 0 +17 130 0 104 130 130 0 85 26 0 0 -15
 104 24 0 130 89 87 17 81 0 131 81 81 0 125 79 0 0 +15 131 72 0 81 13 132 15 132
 97 0 133 13 0 17 133 0 132 133 133 0 78 70 0 0 -17 78 0 134 78 78 0 133 70 0 0
 +15 134 113 0 78 117 0 81 1 121 656 96 117 135 0 112 136 137 14 123 114 136 ?13
8 117 139 5 118 +0 0 138 117 19 15 124 112 0 140 117 134 17 140 0 124 140 140 0
 75 73 0 0 -17 75 0 141 75 75 0 140 73 0 0 +15 141 116 0 75 123 0 81 1 136 657 9
6 123 142 0 121 143 144 14 138 151 143 ?145 123 146 5 147 -0 0 145 123 19 15 139
 140 0 148 123 141 50 118 124 0 123 147 116 0 +0 0 .019 0 0 1 1 0 0 51 147 164 0
 138 149 118 0 +0 0 .018 0 0 1 .025 1 0 0 50 149 166 0 145 150 147 0 +0 0 .018 0
 0 1 1 0 0 14 145 156 151 ?152 138 153 5 149 +0 0 152 138 19 51 150 206 0 152 15
4 149 0 +0 0 .006 0 0 -1 .0155 -1 0 0 14 152 193 155 ?156 145 157 5 150 -0 0 156
 145 19 51 154 247 0 156 158 150 0 +0 0 .012 0 0 -1 .022 -1 0 0 14 156 234 159 ?
160 152 161 5 154 -0 0 160 152 19 51 158 298 0 160 162 154 0 +0 0 .018 0 0 -1 .0
155 -1 0 0 14 160 285 163 ?164 156 23 5 158 -0 0 164 156 19 51 162 426 0 165 166
 158 0 +0 .04 -.001 0 0 1 .0045 1 0 0 14 165 408 167 ?168 15 169 5 162 -0 0 168
 15 19 51 166 472 0 168 170 162 0 +.04 0 -.001 0 0 1 .0045 1 0 0 14 168 454 171
 ?172 165 173 5 166 -0 0 172 165 19 51 170 518 0 172 174 166 0 +0 -.04 -.001 0 0
 1 .0045 1 0 0 14 172 500 175 ?176 168 47 5 170 -0 0 176 168 19 51 174 564 0 176
 0 170 0 +-.04 0 -.001 0 0 1 .0045 1 0 0 14 176 546 177 ?0 172 178 5 174 -0 0 0
 172 19 81 1 177 666 96 176 179 0 175 180 181 15 178 549 0 182 176 183 17 182 0
 178 182 182 0 114 50 0 0 +15 183 550 0 184 176 0 17 184 0 183 184 184 0 49 17 0
 0 -17 49 0 101 49 49 0 184 17 0 0 +15 101 525 0 49 93 41 15 41 479 0 39 93 185
 15 185 433 0 36 93 186 17 36 0 185 36 36 0 187 35 0 0 +15 186 387 0 32 93 128 1
7 32 0 186 32 32 0 188 30 0 0 +17 188 0 189 188 188 0 32 30 0 0 -15 189 412 0 18
8 165 0 17 187 0 190 187 187 0 36 35 0 0 -15 190 458 0 187 168 0 17 114 0 109 11
4 114 0 182 50 0 0 -16 50 543 0 ?182 17 0 51 0 0 1 80 255 1 96 191 192 9000 1 1
 1 1 1 1 1 1 0 FFFFTFTFFFFFFF1 81 1 179 612 193 176 0 177 194 0 195 81 1 175 665
 96 172 194 0 171 177 196 81 1 180 667 96 15 197 0 177 198 199 82 255 1 181 -183
893830 14 15 371 180 ?165 164 200 5 6 +0 0 165 164 19 81 1 197 608 193 15 0 180
 201 202 203 81 1 198 668 96 164 201 0 180 0 204 82 1 199 -221642568 14 164 343
 198 ?15 160 205 5 16 +0 0 15 160 19 81 1 201 607 193 164 0 198 206 197 207 82 1
 204 -1614610263 80 1 193 0 208 8001 0 0 0 0 3 5 0 0 0 FFFFTFTFFFFFFF2 81 1 206
 606 193 160 0 163 209 201 210 83 255 3 207 1 1 1 81 1 163 662 96 160 206 0 159
 167 211 81 1 209 605 193 156 0 159 212 206 213 83 3 210 1 1 1 81 1 159 661 96 1
56 209 0 155 163 214 81 1 212 604 193 152 0 155 215 209 216 83 3 213 1 1 1 81 1
 155 660 96 152 212 0 151 159 217 81 1 215 603 193 145 0 151 218 212 219 83 3 21
6 1 1 1 81 1 151 659 96 145 215 0 143 155 220 81 1 218 602 193 138 0 143 142 215
 221 83 3 219 1 1 1 81 1 143 658 96 138 218 0 136 151 222 81 1 142 601 193 123 0
 136 135 218 223 83 3 221 1 1 1 81 1 135 600 193 117 0 121 120 142 224 83 3 223
 1 1 1 81 1 120 599 193 100 0 112 225 135 226 83 3 224 1 1 1 81 1 225 598 193 93
 0 98 97 120 227 83 3 226 1 1 1 81 1 98 652 96 93 225 0 92 103 228 81 1 97 597 1
93 91 0 92 229 225 230 83 3 227 1 1 1 81 1 229 596 193 89 0 103 111 97 231 83 3
 230 1 1 1 81 1 103 653 96 89 229 0 98 108 232 81 1 111 595 193 13 0 108 0 229 2
33 83 3 231 1 1 1 83 3 233 1 1 1 82 1 232 309723277 82 1 228 -1842872134 82 1 22
2 -1007681386 82 1 220 -1009647457 82 1 217 -1839923031 82 1 214 324534428 81 1
 167 663 96 165 202 0 163 171 234 82 1 211 -1839660872 81 1 202 609 193 165 0 16
7 197 235 236 81 1 171 664 96 168 235 0 167 175 237 82 1 234 -189202246 81 1 235
 610 193 168 0 171 202 194 238 82 1 237 -187432774 81 1 194 611 193 172 0 175 23
5 179 239 83 3 238 1 1 1 83 3 239 1 1 1 83 3 236 1 1 1 79 255 15 208 SDL/TYSA_CO
LOUR15 205 344 0 240 164 241 52 16 350 0 164 105 6 0 -0 0 .00520190035413113 0 0
 1 .0155 .992546151641323 .1218693434051438 1 0 0 51 105 28 0 89 95 16 0 -0 0 .0
01 0 0 -1 .03 -1 0 0 17 240 0 205 240 240 0 63 57 0 0 -15 241 345 0 242 164 0 17
 242 0 241 242 242 0 25 21 0 0 -17 25 0 157 25 25 0 242 21 0 0 +15 157 331 0 25
 152 243 15 243 197 0 65 152 0 17 65 0 243 65 65 0 106 61 0 0 +17 106 0 94 106 1
06 0 65 61 0 0 -17 63 0 244 63 63 0 240 57 0 0 +15 244 238 0 63 156 0 83 3 203 1
 1 1 15 200 372 0 60 15 245 17 60 0 200 60 60 0 246 58 0 0 +15 245 373 0 24 15 0
 17 24 0 245 24 24 0 20 9 0 0 -17 246 0 161 246 246 0 60 58 0 0 -15 161 237 0 24
6 156 244 82 1 196 -185663302 83 3 195 1 1 1 79 14 192 SWEntUnchanged15 47 503 0
 45 172 247 15 247 504 0 42 172 0 17 42 0 247 42 42 0 39 38 0 0 -15 173 457 0 43
 168 190 17 43 0 173 43 43 0 248 37 0 0 +17 248 0 249 248 248 0 43 37 0 0 -15 24
9 441 0 248 13 250 15 250 395 0 251 13 131 17 251 0 250 251 251 0 54 34 0 0 -17
 54 0 169 54 54 0 251 34 0 0 +15 169 411 0 54 165 189 15 23 359 0 20 160 252 15
 252 288 0 253 160 0 17 253 0 252 253 253 0 56 33 0 0 -17 56 0 153 56 56 0 253 3
3 0 0 +15 153 274 0 56 145 254 15 254 158 0 69 145 0 17 69 0 254 69 69 0 255 67
 0 0 +17 255 0 146 255 255 0 69 67 0 0 -15 146 154 0 255 138 256 15 256 155 0 72
 138 0 17 72 0 256 72 72 0 148 66 0 0 +17 148 0 139 148 148 0 72 66 0 0 -82 1 14
4 -1688600426 82 1 137 -1686634349 82 1 122 1728184464 15 115 487 0 48 13 249 17
 48 0 115 48 48 0 45 40 0 0 -82 1 113 -1842544454 82 1 99 309199001 19 14 30 0 1
 0 8 5 S0 74 4 CI16 index_map_offset0 0 1 dCCZ20 12 3 0 0 198 2 179 0 0 0 0 0 0
 0 0 0 0 0 0 0 0 0 0 0 80 2 10 257 258 8004 0 0 0 0 3 5 0 0 0 FFTFFFFFFFFFFF2 3
 83 1 11 1e3 79 16 258 SDL/TYSA_DENSITY1 0 
